<svg preserveAspectRatio="none" overflow="visible" style="display: block;" width="40" height="40" viewBox="0 0 40 40" fill="none" xmlns="http://www.w3.org/2000/svg">
<g id="feature-icon1">
<path id="Vector" d="M20.0781 0.15625C21.3125 0.71875 22.5469 1.3125 23.7969 1.85937C25.7344 2.70312 27.6875 3.45312 29.7813 3.82812C31.3281 4.10937 32.8906 4.15625 34.4531 3.89062C35.0781 3.78125 35.6406 3.84375 36.1094 4.3125C36.5 4.70313 36.5781 5.1875 36.5781 5.70312C36.5781 9.75 36.5938 13.7969 36.5781 17.8437C36.5781 19.4531 36.6094 21.0781 36.4531 22.6875C35.9375 27.8906 33.5938 32.1719 29.625 35.5625C26.8906 37.875 23.7344 39.2969 20.1875 39.8438C19.8281 39.9063 19.4219 39.7969 19.0469 39.7031C11.5313 37.9531 6.59375 33.4375 4.21875 26.125C3.64062 24.3281 3.4375 22.4687 3.4375 20.5781C3.4375 15.6094 3.4375 10.625 3.4375 5.65625C3.4375 4.39063 4.1875 3.6875 5.40625 3.89062C8.0625 4.32812 10.6562 3.98438 13.1406 3.04688C15.3906 2.1875 17.6094 1.17188 19.8438 0.234375C19.875 0.21875 19.9062 0.1875 19.9219 0.15625C19.9688 0.15625 20.0312 0.15625 20.0781 0.15625ZM5.34375 5.98437C5.34375 6.0625 5.34375 6.15625 5.34375 6.26562C5.34375 11.0937 5.32812 15.9062 5.35937 20.7344C5.35937 21.6094 5.4375 22.4844 5.5625 23.3594C6.625 30.4375 12.0156 36.2031 19.0313 37.75C19.4063 37.8281 19.7969 37.9219 20.1719 37.8906C20.6563 37.8594 21.1406 37.7188 21.6094 37.5938C29.25 35.625 34.6094 28.6563 34.6406 20.6406C34.6562 15.875 34.6406 11.1094 34.6406 6.32812C34.6406 6.20312 34.625 6.07813 34.625 5.92188C34.4063 5.92188 34.2188 5.90625 34.0313 5.92188C31.3594 6.1875 28.7656 5.78125 26.2656 4.875C24.2813 4.14063 22.3438 3.28125 20.4063 2.45312C20.125 2.32812 19.9062 2.32812 19.6094 2.45312C18.0469 3.14062 16.5 3.84375 14.9063 4.46875C12.5781 5.39063 10.1719 6 7.64063 6C6.89063 5.98438 6.14063 5.98437 5.34375 5.98437Z" fill="#192F7C"/>
<path id="Vector_2" d="M8.14062 8.75C9.15625 8.6875 10.1406 8.65625 11.125 8.53125C13.2969 8.25 15.3281 7.53125 17.3281 6.6875C18.125 6.35937 18.9062 6 19.6875 5.64062C19.9062 5.54687 20.0781 5.54687 20.2969 5.64062C22.0625 6.35937 23.7969 7.125 25.5937 7.76562C27.5625 8.46875 29.6094 8.79687 31.7188 8.6875C31.75 8.6875 31.7812 8.70312 31.8281 8.70312C31.8438 8.76563 31.8594 8.85938 31.8594 8.9375C31.8594 12.9375 31.9063 16.9375 31.8438 20.9219C31.7813 27.1406 27.5469 32.6563 21.5781 34.4219C21.125 34.5625 20.6406 34.6875 20.1719 34.75C19.9219 34.7969 19.6406 34.7344 19.3906 34.6719C13.3906 33.1094 9.70312 29.3125 8.35937 23.2812C8.17187 22.4531 8.125 21.5781 8.125 20.7188C8.10937 16.7969 8.125 12.875 8.125 8.96875C8.125 8.89063 8.14062 8.8125 8.14062 8.75ZM18.9375 21.9219C17.7812 20.7656 16.7187 19.7031 15.6406 18.6094C15.3437 18.3125 15.0312 18.125 14.625 18.0937C13.9375 18.0312 13.3594 18.3906 13.0781 18.9844C12.8125 19.5625 12.9219 20.2344 13.4063 20.7188C14.8281 22.1563 16.2344 23.5625 17.6719 24.9844C18.4687 25.7812 19.3281 25.7812 20.1094 24.9844C21.5625 23.5156 23.0313 22.0469 24.4688 20.5781C25.5938 19.4375 26.7344 18.2969 27.8594 17.1406C28.5312 16.4531 28.5156 15.4687 27.8594 14.875C27.25 14.3125 26.3125 14.3438 25.6875 14.9844C23.5469 17.1406 21.4219 19.2969 19.2812 21.4375C19.1719 21.5937 19.0625 21.7344 18.9375 21.9219Z" fill="#192F7C"/>
</g>
</svg>
