<svg preserveAspectRatio="none" overflow="visible" style="display: block;" width="120" height="120" viewBox="0 0 120 120" fill="none" xmlns="http://www.w3.org/2000/svg">
<g id="icon-works2-5" clip-path="url(#clip0_0_47)">
<path id="Vector" d="M30.8438 9.60938C31.3594 2.4375 32.3437 0.609375 35.4844 0.515625C38.6719 0.421875 39.6562 2.15625 40.3594 9.42188C53.3906 9.42188 66.4688 9.42188 79.6875 9.42188C80.3438 5.90625 78.5625 0.890625 84.6094 0.5625C87.7031 0.421875 88.6406 2.34375 89.2031 9.60938C92.0625 9.60938 95.0156 9.65625 97.9219 9.60938C110.578 9.32813 119.625 18.5625 119.531 31.2656C119.391 53.4375 119.391 75.6562 119.531 97.8281C119.625 110.531 110.578 119.531 97.8281 119.484C72.6094 119.344 47.3438 119.344 22.125 119.484C9.42188 119.531 0.375 110.484 0.46875 97.7813C0.609375 75.6094 0.609375 53.3906 0.46875 31.2187C0.375 18.5156 9.42188 9.32813 22.125 9.60938C24.9844 9.65625 27.7969 9.60938 30.8438 9.60938ZM9.79687 46.3594C9.75 47.1094 9.70312 47.6719 9.70312 48.2344C9.70312 64.5 9.65625 80.8125 9.70312 97.0781C9.75 106.078 13.875 110.063 22.9219 110.203C23.8594 110.203 24.8438 110.203 25.7813 110.203C47.6719 110.203 69.6094 110.203 91.5 110.203C93.8906 110.203 96.2812 110.297 98.625 110.156C105.984 109.734 109.687 105.984 110.25 98.6719C110.344 97.6406 110.297 96.5625 110.297 95.5313C110.297 80.1094 110.297 64.6875 110.297 49.2656C110.297 48.3281 110.297 47.4375 110.297 46.3594C76.6875 46.3594 43.4062 46.3594 9.79687 46.3594ZM89.2031 18.9375C88.5938 26.0156 87.6563 28.0312 84.6094 27.8906C78.5625 27.6094 80.2969 22.5937 79.6875 19.0312C66.4688 19.0312 53.3906 19.0312 40.2656 19.0312C39.8438 22.6406 41.2969 27.6562 35.7656 27.75C29.9063 27.8437 31.3594 22.5937 30.75 18.5625C26.4844 18.8437 22.3125 18.8437 18.1875 19.4062C14.1562 19.9687 11.3437 22.5 10.5 26.4844C9.79687 29.8594 9.75 33.375 9.42187 36.8906C43.4062 36.8906 76.7344 36.8906 110.156 36.8906C110.156 34.3594 110.344 31.9687 110.109 29.625C109.406 22.9687 106.172 19.6406 99.5625 18.9844C96.2344 18.6562 92.8125 18.9375 89.2031 18.9375Z" fill="#099971"/>
<path id="Vector_2" d="M54.75 82.1719C60.5156 76.4063 65.8125 70.9219 71.2969 65.6719C72.4219 64.5938 74.2969 63.5625 75.7031 63.7031C77.0625 63.8437 78.9844 65.3438 79.3594 66.6094C79.7813 68.0156 79.2187 70.2656 78.2344 71.4375C75.4687 74.7187 72.2813 77.5781 69.2813 80.625C65.8594 84.0469 62.4375 87.5156 59.0156 90.9375C56.1563 93.75 53.9531 93.75 51.1406 91.0312C48.1406 88.125 45.1875 85.125 42.2812 82.1719C39.9844 79.8281 39.8438 77.0156 41.8125 75.1406C43.8281 73.2188 46.2656 73.4062 48.6094 75.6562C49.6406 76.6406 50.6719 77.625 51.6094 78.7031C52.5469 79.6875 53.4844 80.7656 54.75 82.1719Z" fill="#099971"/>
</g>
<defs>
<clipPath id="clip0_0_47">
<rect width="120" height="120" fill="white"/>
</clipPath>
</defs>
</svg>
