<svg width="28" height="28" viewBox="0 0 28 28" fill="none" xmlns="http://www.w3.org/2000/svg">
<path d="M13.8905 27.8906C12.7093 27.2672 11.4515 26.7531 10.3577 26.0094C4.93271 22.3234 2.16552 17.1609 2.04521 10.6094C2.00146 8.07188 2.03427 5.53438 2.03427 2.99688C2.03427 2.82188 2.03427 2.63595 2.03427 2.40626C3.25927 2.16563 4.4624 1.92501 5.66552 1.68438C8.32334 1.15938 10.9921 0.612509 13.6608 0.131259C14.153 0.0437594 14.6999 0.175009 15.203 0.273447C18.6702 0.951572 22.1265 1.64063 25.5936 2.3297C25.714 2.35157 25.8343 2.39532 25.9765 2.43907C25.9765 4.61563 25.9436 6.77032 25.9874 8.92501C26.0311 11.4406 25.8999 13.9234 25.0796 16.3297C23.2421 21.6563 19.753 25.4516 14.5577 27.6719C14.4155 27.7375 14.2733 27.8141 14.1311 27.8906C14.0327 27.8906 13.9671 27.8906 13.8905 27.8906ZM4.21084 4.20001C4.21084 5.20626 4.18896 6.1797 4.21084 7.15313C4.26552 9.19845 4.13427 11.2766 4.4624 13.2781C5.38115 18.8891 8.54209 22.9141 13.6608 25.375C13.8358 25.4625 14.1311 25.4625 14.3061 25.375C19.7858 22.7172 23.0015 18.375 23.6358 12.3156C23.9093 9.65782 23.7343 6.95626 23.7561 4.27657C23.7561 4.24376 23.7233 4.22188 23.6905 4.1672C20.7593 3.58751 17.8171 3.01876 14.8749 2.4172C14.2186 2.28595 13.5952 2.30782 12.9499 2.45001C11.9108 2.6797 10.8608 2.87657 9.81083 3.08438C7.9624 3.45626 6.10302 3.82813 4.21084 4.20001Z" fill="#002470"/>
<path d="M12.8406 14.2735C14.8094 12.3047 16.6906 10.4125 18.5609 8.54224C19.1078 9.10005 19.5891 9.59224 20.0375 10.0516C17.6859 12.4032 15.2688 14.8204 12.8844 17.2047C11.2656 15.575 9.58125 13.8907 7.875 12.1954C8.35625 11.7469 8.85937 11.2766 9.37344 10.7954C10.5 11.9219 11.6594 13.0813 12.8406 14.2735Z" fill="#002470"/>
</svg>
