<svg preserveAspectRatio="none" overflow="visible" style="display: block;" width="44" height="44" viewBox="0 0 44 44" fill="none" xmlns="http://www.w3.org/2000/svg">
<g id="solution-icon3" clip-path="url(#clip0_0_36)">
<path id="Vector" d="M0.171875 36.1453C0.360938 35.6297 0.532813 35.0797 0.773438 34.5812C1.68438 32.6562 3.21406 31.5047 5.225 30.9891C5.29375 29.5109 5.24219 28.0328 5.46562 26.6234C6.06719 22.9453 9.47031 20.3672 13.2172 20.6594C16.8781 20.9344 19.8687 24.0109 19.9547 27.6891C20.0234 30.7484 19.9547 33.825 19.9891 36.9016C20.0234 39.0844 21.6563 40.8891 23.8563 41.2328C25.9016 41.5594 27.9984 40.3391 28.7375 38.3281C29.15 37.2109 29.1844 36.0766 28.6859 34.9422C27.6375 32.5531 26.6578 30.1297 25.6094 27.7406C25.4375 27.3281 25.0937 26.9156 24.7328 26.675C22.5156 25.1797 21.0719 23.1516 20.3328 20.5906C19.2844 16.8781 18.3047 13.1484 17.1359 9.47031C15.7609 5.15624 19.0266 1.61562 22.7047 1.87343C22.7906 1.87343 22.8766 1.85624 22.9453 1.83906C22.9797 1.78749 23.0313 1.75312 23.0484 1.70156C23.1859 0.653118 23.6328 0.137493 24.4062 0.171868C25.2141 0.189056 25.6266 0.790618 25.6437 1.87343C25.6437 2.78437 25.6437 3.69531 25.6437 4.60624C25.6266 5.51718 25.2141 6.04999 24.4922 6.11874C23.7359 6.18749 23.2203 5.68906 23.0828 4.74374C23.0656 4.65781 23.0484 4.57187 23.0484 4.50312C20.5734 4.14218 18.8719 5.99843 19.5422 8.38749C20.6422 12.3234 21.7594 16.2594 22.9281 20.1609C23.9078 23.4781 26.9156 25.6953 30.2844 25.7297C33.7219 25.7469 36.7469 23.5812 37.7609 20.2125C38.9297 16.3281 40.0297 12.4266 41.1297 8.52499C41.8344 6.03281 40.3047 4.24531 37.7094 4.46874C37.675 4.50312 37.6234 4.55468 37.6234 4.58906C37.5031 5.63749 37.0391 6.15312 36.2828 6.11874C35.5094 6.08437 35.0625 5.49999 35.0453 4.48593C35.0453 3.57499 35.0453 2.66406 35.0453 1.75312C35.0625 0.756243 35.5266 0.171868 36.3 0.154681C37.0391 0.137493 37.4859 0.635931 37.6063 1.63281C37.6063 1.68437 37.6406 1.73593 37.675 1.80468C38.2594 1.87343 38.8609 1.87343 39.4281 1.99374C42.5047 2.61249 44.4984 5.53437 43.725 8.54218C42.5906 12.9078 41.3188 17.2391 40.0125 21.5531C39.3422 23.7359 37.8469 25.3859 35.9562 26.6578C35.6125 26.8984 35.2859 27.2594 35.1141 27.6547C34.0141 30.1812 32.9484 32.7078 31.8828 35.2516C31.7281 35.6125 31.6422 36.0078 31.6422 36.4031C31.5734 40.2187 29.5969 42.7281 25.85 43.6906C25.7812 43.7078 25.7125 43.7766 25.6437 43.8281C24.9047 43.8281 24.1656 43.8281 23.4266 43.8281C23.3578 43.7766 23.2891 43.7078 23.2203 43.6906C19.4219 42.6937 17.4625 40.15 17.4625 36.2141C17.4625 33.4641 17.4797 30.6969 17.4625 27.9469C17.4453 25.4719 15.6062 23.4609 13.1828 23.2031C10.7422 22.9453 8.43906 24.5781 8.04375 27.0531C7.8375 28.325 8.00937 29.6484 8.00937 30.9719C8.18125 31.0234 8.40469 31.1094 8.61094 31.1781C11.4984 32.1578 13.3375 34.9766 12.9937 37.9156C12.6328 40.9922 10.175 43.3984 7.13281 43.6219C4.09062 43.8625 1.28906 41.8859 0.446875 38.9125C0.378125 38.6719 0.309375 38.4312 0.223437 38.1906C0.171875 37.5203 0.171875 36.8328 0.171875 36.1453ZM6.61719 33.4297C4.50312 33.4125 2.75 35.1312 2.73281 37.2281C2.71562 39.3078 4.4 41.0437 6.47969 41.0953C8.59375 41.1469 10.3641 39.4453 10.3984 37.3312C10.4328 35.2172 8.73125 33.4469 6.61719 33.4297ZM31.9859 28.2562C30.8344 28.2562 29.7688 28.2562 28.5828 28.2562C29.1328 29.5797 29.6828 30.8344 30.2844 32.2781C30.9031 30.8344 31.4359 29.5625 31.9859 28.2562Z" fill="#0329B2"/>
<path id="Vector_2" d="M7.83749 37.2281C7.85468 37.9328 7.25312 38.5344 6.54843 38.5344C5.87812 38.5172 5.31093 37.9672 5.29374 37.2797C5.27655 36.575 5.87812 35.9734 6.5828 35.9734C7.25312 35.9906 7.8203 36.5578 7.83749 37.2281Z" fill="#0329B2"/>
</g>
<defs>
<clipPath id="clip0_0_36">
<rect width="44" height="44" fill="white"/>
</clipPath>
</defs>
</svg>
